<?xml version="1.0" standalone="no"?>
<!DOCTYPE svg PUBLIC "-//W3C//DTD SVG 20010904//EN"
 "http://www.w3.org/TR/2001/REC-SVG-20010904/DTD/svg10.dtd">
<svg version="1.0" xmlns="http://www.w3.org/2000/svg"
 width="787.000000pt" height="787.000000pt" viewBox="0 0 787.000000 787.000000"
 preserveAspectRatio="xMidYMid meet">
<metadata>
Created by potrace 1.11, written by Peter Selinger 2001-2013
</metadata>
<g transform="translate(0.000000,787.000000) scale(0.100000,-0.100000)"
fill="#000000" stroke="none">
<path d="M5620 5630 l0 -210 -210 0 -210 0 0 -315 0 -315 -110 0 -110 0 0 105
0 105 -210 0 -210 0 0 -105 0 -105 -105 0 -105 0 0 210 0 210 -425 0 -425 0 0
-210 0 -210 -105 0 -105 0 0 105 0 105 -215 0 -215 0 0 -105 0 -105 -100 0
-100 0 0 100 0 100 -215 0 -215 0 0 210 0 210 -1055 0 -1055 0 0 -1690 0
-1690 1055 0 1055 0 0 210 0 210 215 0 215 0 0 110 0 110 100 0 100 0 0 -105
0 -105 215 0 215 0 0 105 0 105 105 0 105 0 0 -215 0 -215 425 0 425 0 0 215
0 215 105 0 105 0 0 -105 0 -105 210 0 210 0 0 105 0 105 110 0 110 0 0 -105
0 -105 1060 0 1060 0 0 210 0 210 215 0 215 0 0 635 0 635 -215 0 -215 0 0
210 0 210 -635 0 -635 0 0 210 0 210 850 0 850 0 0 425 0 425 -1065 0 -1065 0
0 -210z m-3820 -1280 l0 -210 -415 0 -415 0 0 210 0 210 415 0 415 0 0 -210z
m1060 -90 l0 -110 -100 0 -100 0 0 110 0 110 100 0 100 0 0 -110z m2340 0 l0
-110 -110 0 -110 0 0 110 0 110 110 0 110 0 0 -110z m420 -330 l0 -210 635 0
635 0 0 -205 0 -205 -740 0 -740 0 0 415 0 415 105 0 105 0 0 -210z m-3180
-215 l0 -415 -105 0 -105 0 0 415 0 415 105 0 105 0 0 -415z m1700 15 l0 -210
-215 0 -215 0 0 210 0 210 215 0 215 0 0 -210z m-1280 -535 l0 -105 -100 0
-100 0 0 105 0 105 100 0 100 0 0 -105z m2340 0 l0 -105 -110 0 -110 0 0 105
0 105 110 0 110 0 0 -105z m-3400 -110 l0 -205 -415 0 -415 0 0 205 0 205 415
0 415 0 0 -205z"/>
</g>
</svg>
